<?xml version="1.0" encoding="UTF-8"?> <svg xmlns="http://www.w3.org/2000/svg" width="120" height="30" viewBox="0 0 120 30" fill="none"> <path fill-rule="evenodd" clip-rule="evenodd" d="M69.48 1.3903H78.636L83.7 11.5679H84.12L89.064 1.3903H98.016L84.108 29.9998H83.688L69.48 1.3903ZM43.128 20.8973C42.612 21.3034 42.072 21.6499 41.484 21.9485C38.568 23.4178 35.364 23.0833 32.94 20.8376C30.588 18.6515 29.388 15.1754 30.384 12.0696C31.236 9.40572 33.48 7.55417 36.168 6.88522C38.712 6.25211 40.908 6.87328 43.296 7.67363C42.012 5.12924 40.716 2.58485 39.432 0.040456C36.468 -0.162617 33.696 0.398821 31.044 1.72477C27.156 3.67189 24.588 6.53881 23.328 10.3136C22.344 13.2522 22.32 16.2147 23.28 19.1891L14.64 1.3903H14.22L0 29.9998H9.156L11.688 24.911H17.112L19.584 29.9998H28.536L25.428 23.597C27.276 26.3564 29.748 28.2557 32.856 29.2711C36.624 30.5015 40.392 30.1789 44.172 28.2677C47.304 26.6909 49.932 24.1823 52.056 21.4229L47.796 29.9878H56.952L59.484 24.899H64.908L67.38 29.9878H76.332L62.436 1.3903H62.016L52.332 20.8734L46.296 8.93985L35.712 14.2436L38.268 19.2846L41.52 17.6481L43.128 20.8973ZM91.464 29.9998H100.62L103.152 24.911H108.576L111.048 29.9998H120L106.104 1.3903H105.684L91.464 29.9998Z" fill="white"></path> </svg> 