<svg width="39" height="39" viewBox="0 0 39 39" fill="none" xmlns="http://www.w3.org/2000/svg">
<path d="M16.25 24.375L24.6838 19.5L16.25 14.625V24.375ZM35.035 11.6513C35.2462 12.415 35.3925 13.4387 35.49 14.7387C35.6038 16.0387 35.6525 17.16 35.6525 18.135L35.75 19.5C35.75 23.0588 35.49 25.675 35.035 27.3487C34.6287 28.8113 33.6863 29.7537 32.2237 30.16C31.46 30.3712 30.0625 30.5175 27.9175 30.615C25.805 30.7288 23.8713 30.7775 22.0837 30.7775L19.5 30.875C12.6912 30.875 8.45 30.615 6.77625 30.16C5.31375 29.7537 4.37125 28.8113 3.965 27.3487C3.75375 26.585 3.6075 25.5613 3.51 24.2612C3.39625 22.9613 3.3475 21.84 3.3475 20.865L3.25 19.5C3.25 15.9412 3.51 13.325 3.965 11.6513C4.37125 10.1888 5.31375 9.24625 6.77625 8.84C7.54 8.62875 8.9375 8.4825 11.0825 8.385C13.195 8.27125 15.1287 8.2225 16.9163 8.2225L19.5 8.125C26.3088 8.125 30.55 8.385 32.2237 8.84C33.6863 9.24625 34.6287 10.1888 35.035 11.6513Z" fill="#EEEEEE" fill-opacity="0.9"/>
</svg>
