<svg width="18" height="15" viewBox="0 0 18 15" fill="none" xmlns="http://www.w3.org/2000/svg">
<path d="M12.75 0.389648C11.4052 0.389648 10.1865 0.590376 9.234 0.968531C8.28225 1.34669 7.5 1.96261 7.5 2.77926V5.16887C7.5 5.24593 7.53225 5.32061 7.54725 5.39289C6.79652 5.24094 6.02458 5.16566 5.25 5.16887C3.90525 5.16887 2.6865 5.3696 1.734 5.74775C0.78225 6.12591 0 6.74183 0 7.55848V12.3377C0 13.1543 0.78225 13.7703 1.73475 14.1484C2.6865 14.5266 3.90525 14.7273 5.25 14.7273C6.59475 14.7273 7.8135 14.5266 8.766 14.1484C9.717 13.7703 10.5 13.1543 10.5 12.3377V12.0952C11.2337 12.2531 11.99 12.3347 12.75 12.3377C14.0948 12.3377 15.3135 12.137 16.266 11.7588C17.217 11.3807 18 10.7647 18 9.94809V2.77926C18 1.96261 17.2178 1.34669 16.2653 0.968531C15.3142 0.590376 14.0955 0.389648 12.75 0.389648ZM12.75 1.58445C13.8923 1.58445 14.9093 1.7804 15.5858 2.05103C16.263 2.32165 16.5 2.60661 16.5 2.77926C16.5 2.95251 16.263 3.23687 15.5858 3.50749C14.91 3.77812 13.8923 3.97406 12.75 3.97406C11.6077 3.97406 10.5907 3.77812 9.91425 3.50749C9.237 3.23687 9 2.95191 9 2.77926C9 2.60601 9.237 2.32165 9.91425 2.05103C10.59 1.7804 11.6077 1.58445 12.75 1.58445ZM9 4.47827C9.07875 4.51292 9.15225 4.55773 9.23475 4.58999C10.1865 4.96814 11.4052 5.16887 12.75 5.16887C14.0948 5.16887 15.3135 4.96814 16.266 4.58999C16.3477 4.55773 16.4212 4.51292 16.5 4.47827V5.16887C16.5 5.34212 16.263 5.62648 15.5858 5.8971C14.9093 6.16773 13.8923 6.36367 12.75 6.36367C11.6077 6.36367 10.5907 6.16773 9.91425 5.8971C9.237 5.62648 9 5.34152 9 5.16887V4.47827ZM5.25 6.36367C6.39225 6.36367 7.40925 6.55962 8.08575 6.83025C8.763 7.10087 9 7.38583 9 7.55848C9 7.73173 8.763 8.01609 8.08575 8.28671C7.40925 8.55734 6.39225 8.75328 5.25 8.75328C4.10775 8.75328 3.09075 8.55734 2.41425 8.28671C1.737 8.01609 1.5 7.73113 1.5 7.55848C1.5 7.38523 1.737 7.10087 2.41425 6.83025C3.09 6.55962 4.10775 6.36367 5.25 6.36367ZM16.5 6.86788V7.55848C16.5 7.73173 16.263 8.01609 15.5858 8.28671C14.9093 8.55734 13.8923 8.75328 12.75 8.75328C11.986 8.75658 11.2263 8.66198 10.5 8.4731V7.55848C10.5 7.48141 10.4678 7.40674 10.4528 7.33445C11.1503 7.47902 11.9235 7.55848 12.75 7.55848C14.0948 7.55848 15.3135 7.35775 16.266 6.9796C16.3477 6.94734 16.4212 6.90253 16.5 6.86788ZM1.5 9.25749C1.57875 9.29214 1.65225 9.33695 1.73475 9.36921C2.6865 9.74736 3.90525 9.94809 5.25 9.94809C6.59475 9.94809 7.8135 9.74736 8.766 9.36921C8.84775 9.33695 8.92125 9.29214 9 9.25749V9.94809C9 10.1213 8.763 10.4057 8.08575 10.6763C7.40925 10.9469 6.39225 11.1429 5.25 11.1429C4.10775 11.1429 3.09075 10.9469 2.41425 10.6763C1.737 10.4057 1.5 10.1207 1.5 9.94809V9.25749ZM16.5 9.25749V9.94809C16.5 10.1213 16.263 10.4057 15.5858 10.6763C14.9093 10.9469 13.8923 11.1429 12.75 11.1429C11.8973 11.1429 11.127 11.0473 10.5 10.8812V9.72406C11.1885 9.86864 11.9385 9.94809 12.75 9.94809C14.0948 9.94809 15.3135 9.74736 16.266 9.36921C16.3477 9.33695 16.4212 9.29214 16.5 9.25749ZM1.5 11.6471C1.57875 11.6818 1.65225 11.7266 1.73475 11.7588C2.6865 12.137 3.90525 12.3377 5.25 12.3377C6.59475 12.3377 7.8135 12.137 8.766 11.7588C8.84775 11.7266 8.92125 11.6818 9 11.6471V12.3377C9 12.5109 8.763 12.7953 8.08575 13.0659C7.40925 13.3366 6.39225 13.5325 5.25 13.5325C4.10775 13.5325 3.09075 13.3366 2.41425 13.0659C1.737 12.7953 1.5 12.5103 1.5 12.3377V11.6471Z" fill="white" fill-opacity="0.89"/>
</svg>
