<svg width="21" height="21" viewBox="0 0 21 21" fill="none" xmlns="http://www.w3.org/2000/svg">
<path d="M2 20.7001C1.45 20.7001 0.979 20.504 0.587 20.112C0.195667 19.7207 0 19.25 0 18.7001V4.70005C0 4.15005 0.195667 3.67905 0.587 3.28705C0.979 2.89572 1.45 2.70005 2 2.70005H10.925L8.925 4.70005H2V18.7001H16V11.75L18 9.75005V18.7001C18 19.25 17.8043 19.7207 17.413 20.112C17.021 20.504 16.55 20.7001 16 20.7001H2ZM13.175 3.27505L14.6 4.67505L8 11.275V12.7H9.4L16.025 6.07505L17.45 7.47505L10.25 14.7H6V10.45L13.175 3.27505ZM17.45 7.47505L13.175 3.27505L15.675 0.775049C16.075 0.375049 16.5543 0.175049 17.113 0.175049C17.671 0.175049 18.1417 0.375049 18.525 0.775049L19.925 2.20005C20.3083 2.58338 20.5 3.05005 20.5 3.60005C20.5 4.15005 20.3083 4.61672 19.925 5.00005L17.45 7.47505Z" fill="white"/>
</svg>
