<svg width="28" height="28" viewBox="0 0 28 28" fill="none" xmlns="http://www.w3.org/2000/svg">
<path d="M19.625 0.5C17.6079 0.5 15.7797 0.878 14.351 1.59012C12.9234 2.30225 11.75 3.46213 11.75 5V9.5C11.75 9.64513 11.7984 9.78575 11.8209 9.92188C10.6948 9.63573 9.53687 9.49396 8.375 9.5C6.35787 9.5 4.52975 9.878 3.101 10.5901C1.67337 11.3022 0.5 12.4621 0.5 14V23C0.5 24.5379 1.67338 25.6978 3.10213 26.4099C4.52975 27.122 6.35787 27.5 8.375 27.5C10.3921 27.5 12.2203 27.122 13.649 26.4099C15.0755 25.6978 16.25 24.5379 16.25 23V22.5432C17.3505 22.8408 18.485 22.9943 19.625 23C21.6421 23 23.4702 22.622 24.899 21.9099C26.3255 21.1978 27.5 20.0379 27.5 18.5V5C27.5 3.46213 26.3266 2.30225 24.8979 1.59012C23.4714 0.878 21.6432 0.5 19.625 0.5ZM19.625 2.75C21.3384 2.75 22.8639 3.119 23.8786 3.62863C24.8945 4.13825 25.25 4.67487 25.25 5C25.25 5.32625 24.8945 5.86175 23.8786 6.37138C22.865 6.881 21.3384 7.25 19.625 7.25C17.9116 7.25 16.3861 6.881 15.3714 6.37138C14.3555 5.86175 14 5.32513 14 5C14 4.67375 14.3555 4.13825 15.3714 3.62863C16.385 3.119 17.9116 2.75 19.625 2.75ZM14 8.1995C14.1181 8.26475 14.2284 8.34913 14.3521 8.40987C15.7797 9.122 17.6079 9.5 19.625 9.5C21.6421 9.5 23.4702 9.122 24.899 8.40987C25.0216 8.34913 25.1319 8.26475 25.25 8.1995V9.5C25.25 9.82625 24.8945 10.3617 23.8786 10.8714C22.8639 11.381 21.3384 11.75 19.625 11.75C17.9116 11.75 16.3861 11.381 15.3714 10.8714C14.3555 10.3617 14 9.82512 14 9.5V8.1995ZM8.375 11.75C10.0884 11.75 11.6139 12.119 12.6286 12.6286C13.6445 13.1383 14 13.6749 14 14C14 14.3263 13.6445 14.8617 12.6286 15.3714C11.6139 15.881 10.0884 16.25 8.375 16.25C6.66162 16.25 5.13613 15.881 4.12137 15.3714C3.1055 14.8617 2.75 14.3251 2.75 14C2.75 13.6737 3.1055 13.1383 4.12137 12.6286C5.135 12.119 6.66162 11.75 8.375 11.75ZM25.25 12.6995V14C25.25 14.3263 24.8945 14.8617 23.8786 15.3714C22.8639 15.881 21.3384 16.25 19.625 16.25C18.479 16.2562 17.3394 16.0781 16.25 15.7224V14C16.25 13.8549 16.2016 13.7142 16.1791 13.5781C17.2254 13.8504 18.3853 14 19.625 14C21.6421 14 23.4702 13.622 24.899 12.9099C25.0216 12.8491 25.1319 12.7647 25.25 12.6995ZM2.75 17.1995C2.86812 17.2647 2.97838 17.3491 3.10213 17.4099C4.52975 18.122 6.35787 18.5 8.375 18.5C10.3921 18.5 12.2203 18.122 13.649 17.4099C13.7716 17.3491 13.8819 17.2647 14 17.1995V18.5C14 18.8263 13.6445 19.3617 12.6286 19.8714C11.6139 20.381 10.0884 20.75 8.375 20.75C6.66162 20.75 5.13613 20.381 4.12137 19.8714C3.1055 19.3617 2.75 18.8251 2.75 18.5V17.1995ZM25.25 17.1995V18.5C25.25 18.8263 24.8945 19.3617 23.8786 19.8714C22.8639 20.381 21.3384 20.75 19.625 20.75C18.3459 20.75 17.1905 20.57 16.25 20.2572V18.0781C17.2827 18.3504 18.4077 18.5 19.625 18.5C21.6421 18.5 23.4702 18.122 24.899 17.4099C25.0216 17.3491 25.1319 17.2647 25.25 17.1995ZM2.75 21.6995C2.86812 21.7647 2.97838 21.8491 3.10213 21.9099C4.52975 22.622 6.35787 23 8.375 23C10.3921 23 12.2203 22.622 13.649 21.9099C13.7716 21.8491 13.8819 21.7647 14 21.6995V23C14 23.3263 13.6445 23.8617 12.6286 24.3714C11.6139 24.881 10.0884 25.25 8.375 25.25C6.66162 25.25 5.13613 24.881 4.12137 24.3714C3.1055 23.8617 2.75 23.3251 2.75 23V21.6995Z" fill="white" fill-opacity="0.89"/>
</svg>
