<svg width="101" height="101" viewBox="0 0 101 101" fill="none" xmlns="http://www.w3.org/2000/svg">
    <path d="M50.5003 75.2917C51.9052 75.2917 53.0836 74.8157 54.0356 73.8637C54.9843 72.915 55.4587 71.7382 55.4587 70.3334C55.4587 68.9285 54.9843 67.7501 54.0356 66.7981C53.0836 65.8494 51.9052 65.375 50.5003 65.375C49.0955 65.375 47.9187 65.8494 46.97 66.7981C46.018 67.7501 45.542 68.9285 45.542 70.3334C45.542 71.7382 46.018 72.915 46.97 73.8637C47.9187 74.8157 49.0955 75.2917 50.5003 75.2917ZM45.542 55.4584H55.4587V25.7084H45.542V55.4584ZM50.5003 100.083C43.6413 100.083 37.1955 98.781 31.1628 96.1762C25.1302 93.5747 19.8826 90.0427 15.4201 85.5802C10.9576 81.1177 7.42563 75.8702 4.82416 69.8375C2.21938 63.8049 0.916992 57.359 0.916992 50.5C0.916992 43.641 2.21938 37.1952 4.82416 31.1625C7.42563 25.1299 10.9576 19.8823 15.4201 15.4198C19.8826 10.9573 25.1302 7.42367 31.1628 4.81889C37.1955 2.21742 43.6413 0.916687 50.5003 0.916687C57.3593 0.916687 63.8052 2.21742 69.8378 4.81889C75.8705 7.42367 81.118 10.9573 85.5805 15.4198C90.043 19.8823 93.575 25.1299 96.1765 31.1625C98.7813 37.1952 100.084 43.641 100.084 50.5C100.084 57.359 98.7813 63.8049 96.1765 69.8375C93.575 75.8702 90.043 81.1177 85.5805 85.5802C81.118 90.0427 75.8705 93.5747 69.8378 96.1762C63.8052 98.781 57.3593 100.083 50.5003 100.083Z"
          fill="#FF5C5C"/>
</svg>
