<svg width="34" height="34" viewBox="0 0 34 34" fill="none" xmlns="http://www.w3.org/2000/svg">
<path d="M29.4999 17C29.4999 16.6167 29.4833 16.25 29.4499 15.8667L32.5499 13.5167C33.2166 13.0167 33.3999 12.0833 32.9833 11.35L29.8666 5.96666C29.6668 5.61364 29.3435 5.3469 28.959 5.21769C28.5744 5.08849 28.1557 5.10593 27.7833 5.26666L24.1999 6.78333C23.5833 6.34999 22.9333 5.96666 22.2499 5.64999L21.7666 1.8C21.6666 0.966662 20.9499 0.333328 20.1166 0.333328H13.8999C13.0499 0.333328 12.3333 0.966662 12.2333 1.8L11.7499 5.64999C11.0666 5.96666 10.4166 6.34999 9.79993 6.78333L6.2166 5.26666C5.44993 4.93333 4.54993 5.23333 4.13326 5.96666L1.0166 11.3667C0.59993 12.1 0.783263 13.0167 1.44993 13.5333L4.54993 15.8833C4.48084 16.6317 4.48084 17.3849 4.54993 18.1333L1.44993 20.4833C0.783263 20.9833 0.59993 21.9167 1.0166 22.65L4.13326 28.0333C4.54993 28.7667 5.44993 29.0667 6.2166 28.7333L9.79993 27.2167C10.4166 27.65 11.0666 28.0333 11.7499 28.35L12.2333 32.2C12.3333 33.0333 13.0499 33.6667 13.8833 33.6667H20.0999C20.9333 33.6667 21.6499 33.0333 21.7499 32.2L22.2333 28.35C22.9166 28.0333 23.5666 27.65 24.1833 27.2167L27.7666 28.7333C28.5333 29.0667 29.4333 28.7667 29.8499 28.0333L32.9666 22.65C33.3833 21.9167 33.1999 21 32.5333 20.4833L29.4333 18.1333C29.4833 17.75 29.4999 17.3833 29.4999 17ZM17.0666 22.8333C13.8499 22.8333 11.2333 20.2167 11.2333 17C11.2333 13.7833 13.8499 11.1667 17.0666 11.1667C20.2833 11.1667 22.8999 13.7833 22.8999 17C22.8999 20.2167 20.2833 22.8333 17.0666 22.8333Z" fill="white"/>
</svg>
