<svg width="30" height="30" viewBox="0 0 30 30" fill="none" xmlns="http://www.w3.org/2000/svg">
<path d="M26.25 20.0021V9.99661C26.2496 9.66913 26.1634 9.34747 26.0001 9.06364C25.8367 8.77981 25.6019 8.54371 25.3189 8.37884L16.4127 3.19564C15.9836 2.94582 15.4959 2.81421 14.9994 2.81421C14.5029 2.81421 14.0152 2.94582 13.5861 3.19564L4.68105 8.37884C4.3981 8.54371 4.16326 8.77981 3.99991 9.06364C3.83656 9.34747 3.7504 9.66913 3.75 9.99661V20.0021C3.75019 20.3298 3.83626 20.6517 3.99962 20.9357C4.16298 21.2198 4.39793 21.4561 4.68105 21.621L13.5873 26.8042C14.0165 27.0537 14.5041 27.1851 15.0006 27.1851C15.497 27.1851 15.9846 27.0537 16.4139 26.8042L25.3201 21.621C25.603 21.4559 25.8377 21.2196 26.0009 20.9355C26.164 20.6515 26.2499 20.3296 26.25 20.0021Z" stroke="white" stroke-width="2" stroke-linecap="round" stroke-linejoin="round"/>
<path d="M4.04297 9.02295L15 15.4683L25.957 9.02295M15 27.187V15.4683" stroke="white" stroke-width="2" stroke-linecap="round" stroke-linejoin="round"/>
<path d="M15 9.84375C15.7767 9.84375 16.4062 9.42402 16.4062 8.90625C16.4062 8.38848 15.7767 7.96875 15 7.96875C14.2233 7.96875 13.5938 8.38848 13.5938 8.90625C13.5938 9.42402 14.2233 9.84375 15 9.84375Z" fill="white"/>
<path d="M12.1875 18.75C12.7053 18.75 13.125 18.1204 13.125 17.3438C13.125 16.5671 12.7053 15.9375 12.1875 15.9375C11.6697 15.9375 11.25 16.5671 11.25 17.3438C11.25 18.1204 11.6697 18.75 12.1875 18.75Z" fill="white"/>
<path d="M6.5625 20.625C7.08027 20.625 7.5 19.9954 7.5 19.2188C7.5 18.4421 7.08027 17.8125 6.5625 17.8125C6.04473 17.8125 5.625 18.4421 5.625 19.2188C5.625 19.9954 6.04473 20.625 6.5625 20.625Z" fill="white"/>
<path d="M17.8125 18.75C18.3303 18.75 18.75 18.1204 18.75 17.3438C18.75 16.5671 18.3303 15.9375 17.8125 15.9375C17.2947 15.9375 16.875 16.5671 16.875 17.3438C16.875 18.1204 17.2947 18.75 17.8125 18.75Z" fill="white"/>
<path d="M23.4375 15.4688C23.9553 15.4688 24.375 14.8392 24.375 14.0625C24.375 13.2858 23.9553 12.6562 23.4375 12.6562C22.9197 12.6562 22.5 13.2858 22.5 14.0625C22.5 14.8392 22.9197 15.4688 23.4375 15.4688Z" fill="white"/>
<path d="M17.8125 23.9062C18.3303 23.9062 18.75 23.2767 18.75 22.5C18.75 21.7233 18.3303 21.0938 17.8125 21.0938C17.2947 21.0938 16.875 21.7233 16.875 22.5C16.875 23.2767 17.2947 23.9062 17.8125 23.9062Z" fill="white"/>
<path d="M23.4375 20.625C23.9553 20.625 24.375 19.9954 24.375 19.2188C24.375 18.4421 23.9553 17.8125 23.4375 17.8125C22.9197 17.8125 22.5 18.4421 22.5 19.2188C22.5 19.9954 22.9197 20.625 23.4375 20.625Z" fill="white"/>
</svg>
