<svg width="18" height="18" viewBox="0 0 18 18" fill="none" xmlns="http://www.w3.org/2000/svg">
<path d="M12.75 0C11.4053 0 10.1865 0.252 9.234 0.72675C8.28225 1.2015 7.5 1.97475 7.5 3V6C7.5 6.09675 7.53225 6.1905 7.54725 6.28125C6.79652 6.09048 6.02458 5.99598 5.25 6C3.90525 6 2.6865 6.252 1.734 6.72675C0.78225 7.2015 0 7.97475 0 9V15C0 16.0252 0.78225 16.7985 1.73475 17.2733C2.6865 17.748 3.90525 18 5.25 18C6.59475 18 7.8135 17.748 8.766 17.2733C9.717 16.7985 10.5 16.0252 10.5 15V14.6955C11.2337 14.8938 11.99 14.9962 12.75 15C14.0947 15 15.3135 14.748 16.266 14.2733C17.217 13.7985 18 13.0252 18 12V3C18 1.97475 17.2178 1.2015 16.2653 0.72675C15.3143 0.252 14.0955 0 12.75 0ZM12.75 1.5C13.8923 1.5 14.9093 1.746 15.5858 2.08575C16.263 2.4255 16.5 2.78325 16.5 3C16.5 3.2175 16.263 3.5745 15.5858 3.91425C14.91 4.254 13.8923 4.5 12.75 4.5C11.6077 4.5 10.5907 4.254 9.91425 3.91425C9.237 3.5745 9 3.21675 9 3C9 2.7825 9.237 2.4255 9.91425 2.08575C10.59 1.746 11.6077 1.5 12.75 1.5ZM9 5.133C9.07875 5.1765 9.15225 5.23275 9.23475 5.27325C10.1865 5.748 11.4053 6 12.75 6C14.0947 6 15.3135 5.748 16.266 5.27325C16.3477 5.23275 16.4213 5.1765 16.5 5.133V6C16.5 6.2175 16.263 6.5745 15.5858 6.91425C14.9093 7.254 13.8923 7.5 12.75 7.5C11.6077 7.5 10.5907 7.254 9.91425 6.91425C9.237 6.5745 9 6.21675 9 6V5.133ZM5.25 7.5C6.39225 7.5 7.40925 7.746 8.08575 8.08575C8.763 8.4255 9 8.78325 9 9C9 9.2175 8.763 9.5745 8.08575 9.91425C7.40925 10.254 6.39225 10.5 5.25 10.5C4.10775 10.5 3.09075 10.254 2.41425 9.91425C1.737 9.5745 1.5 9.21675 1.5 9C1.5 8.7825 1.737 8.4255 2.41425 8.08575C3.09 7.746 4.10775 7.5 5.25 7.5ZM16.5 8.133V9C16.5 9.2175 16.263 9.5745 15.5858 9.91425C14.9093 10.254 13.8923 10.5 12.75 10.5C11.986 10.5041 11.2263 10.3854 10.5 10.1483V9C10.5 8.90325 10.4678 8.8095 10.4528 8.71875C11.1503 8.90025 11.9235 9 12.75 9C14.0947 9 15.3135 8.748 16.266 8.27325C16.3477 8.23275 16.4213 8.1765 16.5 8.133V8.133ZM1.5 11.133C1.57875 11.1765 1.65225 11.2328 1.73475 11.2733C2.6865 11.748 3.90525 12 5.25 12C6.59475 12 7.8135 11.748 8.766 11.2733C8.84775 11.2328 8.92125 11.1765 9 11.133V12C9 12.2175 8.763 12.5745 8.08575 12.9142C7.40925 13.254 6.39225 13.5 5.25 13.5C4.10775 13.5 3.09075 13.254 2.41425 12.9142C1.737 12.5745 1.5 12.2168 1.5 12V11.133ZM16.5 11.133V12C16.5 12.2175 16.263 12.5745 15.5858 12.9142C14.9093 13.254 13.8923 13.5 12.75 13.5C11.8973 13.5 11.127 13.38 10.5 13.1715V11.7188C11.1885 11.9002 11.9385 12 12.75 12C14.0947 12 15.3135 11.748 16.266 11.2733C16.3477 11.2328 16.4213 11.1765 16.5 11.133V11.133ZM1.5 14.133C1.57875 14.1765 1.65225 14.2328 1.73475 14.2733C2.6865 14.748 3.90525 15 5.25 15C6.59475 15 7.8135 14.748 8.766 14.2733C8.84775 14.2328 8.92125 14.1765 9 14.133V15C9 15.2175 8.763 15.5745 8.08575 15.9142C7.40925 16.254 6.39225 16.5 5.25 16.5C4.10775 16.5 3.09075 16.254 2.41425 15.9142C1.737 15.5745 1.5 15.2168 1.5 15V14.133Z" fill="white" fill-opacity="0.89"/>
</svg>
